<svg xmlns="http://www.w3.org/2000/svg" xmlns:xlink="http://www.w3.org/1999/xlink" width="200" zoomAndPan="magnify" viewBox="0 0 150 44.999999" height="60" preserveAspectRatio="xMidYMid meet" version="1.0"><defs><g/></defs><g fill="#0c4a6e" fill-opacity="1"><g transform="translate(5.65626, 31.551545)"><g><path d="M 21.734375 -16.609375 C 23.515625 -14.660156 24.40625 -12.28125 24.40625 -9.46875 C 24.40625 -6.65625 23.515625 -4.28125 21.734375 -2.34375 C 19.960938 -0.40625 17.710938 0.5625 14.984375 0.5625 C 12.460938 0.5625 10.390625 -0.335938 8.765625 -2.140625 L 8.6875 -2.140625 L 8.6875 0 L 2.21875 0 L 2.21875 -31.8125 L 8.765625 -31.8125 L 8.765625 -17.15625 C 10.390625 -18.738281 12.460938 -19.53125 14.984375 -19.53125 C 17.710938 -19.53125 19.960938 -18.554688 21.734375 -16.609375 Z M 16.234375 -6.265625 C 17.046875 -7.097656 17.453125 -8.164062 17.453125 -9.46875 C 17.453125 -10.769531 17.023438 -11.835938 16.171875 -12.671875 C 15.328125 -13.515625 14.273438 -13.9375 13.015625 -13.9375 C 11.785156 -13.9375 10.742188 -13.515625 9.890625 -12.671875 C 9.046875 -11.835938 8.625 -10.769531 8.625 -9.46875 C 8.625 -8.1875 9.035156 -7.125 9.859375 -6.28125 C 10.679688 -5.445312 11.734375 -5.03125 13.015625 -5.03125 C 14.347656 -5.03125 15.421875 -5.441406 16.234375 -6.265625 Z M 16.234375 -6.265625 "/></g></g></g><g fill="#0c4a6e" fill-opacity="1"><g transform="translate(27.432029, 31.551545)"><g><path d="M 2.21875 0 L 2.21875 -18.96875 L 8.765625 -18.96875 L 8.765625 -16.234375 L 8.84375 -16.234375 C 8.882812 -16.335938 8.960938 -16.460938 9.078125 -16.609375 C 9.191406 -16.753906 9.429688 -17.007812 9.796875 -17.375 C 10.171875 -17.75 10.566406 -18.082031 10.984375 -18.375 C 11.398438 -18.675781 11.941406 -18.941406 12.609375 -19.171875 C 13.273438 -19.410156 13.953125 -19.53125 14.640625 -19.53125 C 15.359375 -19.53125 16.0625 -19.429688 16.75 -19.234375 C 17.445312 -19.035156 17.953125 -18.835938 18.265625 -18.640625 L 18.78125 -18.34375 L 16.046875 -12.796875 C 15.234375 -13.484375 14.101562 -13.828125 12.65625 -13.828125 C 11.863281 -13.828125 11.179688 -13.65625 10.609375 -13.3125 C 10.046875 -12.96875 9.644531 -12.546875 9.40625 -12.046875 C 9.175781 -11.554688 9.007812 -11.140625 8.90625 -10.796875 C 8.8125 -10.453125 8.765625 -10.179688 8.765625 -9.984375 L 8.765625 0 Z M 2.21875 0 "/></g></g></g><g fill="#0c4a6e" fill-opacity="1"><g transform="translate(42.36786, 31.551545)"><g><path d="M 4 -2.25 C 1.894531 -4.125 0.84375 -6.53125 0.84375 -9.46875 C 0.84375 -12.40625 1.941406 -14.816406 4.140625 -16.703125 C 6.335938 -18.585938 9.050781 -19.53125 12.28125 -19.53125 C 15.457031 -19.53125 18.132812 -18.578125 20.3125 -16.671875 C 22.5 -14.773438 23.59375 -12.375 23.59375 -9.46875 C 23.59375 -6.5625 22.523438 -4.160156 20.390625 -2.265625 C 18.265625 -0.378906 15.5625 0.5625 12.28125 0.5625 C 8.875 0.5625 6.113281 -0.375 4 -2.25 Z M 9.078125 -12.671875 C 8.222656 -11.835938 7.796875 -10.769531 7.796875 -9.46875 C 7.796875 -8.164062 8.203125 -7.097656 9.015625 -6.265625 C 9.835938 -5.441406 10.910156 -5.03125 12.234375 -5.03125 C 13.523438 -5.03125 14.582031 -5.445312 15.40625 -6.28125 C 16.226562 -7.125 16.640625 -8.1875 16.640625 -9.46875 C 16.640625 -10.769531 16.210938 -11.835938 15.359375 -12.671875 C 14.515625 -13.515625 13.472656 -13.9375 12.234375 -13.9375 C 10.984375 -13.9375 9.929688 -13.515625 9.078125 -12.671875 Z M 9.078125 -12.671875 "/></g></g></g><g fill="#0c4a6e" fill-opacity="1"><g transform="translate(63.330227, 31.551545)"><g><path d="M 4 -2.25 C 1.894531 -4.125 0.84375 -6.53125 0.84375 -9.46875 C 0.84375 -12.40625 1.941406 -14.816406 4.140625 -16.703125 C 6.335938 -18.585938 9.050781 -19.53125 12.28125 -19.53125 C 15.457031 -19.53125 18.132812 -18.578125 20.3125 -16.671875 C 22.5 -14.773438 23.59375 -12.375 23.59375 -9.46875 C 23.59375 -6.5625 22.523438 -4.160156 20.390625 -2.265625 C 18.265625 -0.378906 15.5625 0.5625 12.28125 0.5625 C 8.875 0.5625 6.113281 -0.375 4 -2.25 Z M 9.078125 -12.671875 C 8.222656 -11.835938 7.796875 -10.769531 7.796875 -9.46875 C 7.796875 -8.164062 8.203125 -7.097656 9.015625 -6.265625 C 9.835938 -5.441406 10.910156 -5.03125 12.234375 -5.03125 C 13.523438 -5.03125 14.582031 -5.445312 15.40625 -6.28125 C 16.226562 -7.125 16.640625 -8.1875 16.640625 -9.46875 C 16.640625 -10.769531 16.210938 -11.835938 15.359375 -12.671875 C 14.515625 -13.515625 13.472656 -13.9375 12.234375 -13.9375 C 10.984375 -13.9375 9.929688 -13.515625 9.078125 -12.671875 Z M 9.078125 -12.671875 "/></g></g></g><g fill="#0c4a6e" fill-opacity="1"><g transform="translate(84.292598, 31.551545)"><g><path d="M 23.890625 -18.96875 L 14.875 -9.90625 L 24.78125 0 L 16.34375 0 L 8.765625 -7.578125 L 8.765625 0 L 2.21875 0 L 2.21875 -31.8125 L 8.765625 -31.8125 L 8.765625 -12.359375 L 15.390625 -18.96875 Z M 23.890625 -18.96875 "/></g></g></g><g fill="#0c4a6e" fill-opacity="1"><g transform="translate(104.70037, 31.551545)"><g><path d="M 2.21875 0 L 2.21875 -31.8125 L 8.765625 -31.8125 L 8.765625 0 Z M 2.21875 0 "/></g></g></g><g fill="#0c4a6e" fill-opacity="1"><g transform="translate(112.204695, 31.551545)"><g><path d="M 2.84375 -29.546875 C 3.613281 -30.316406 4.523438 -30.703125 5.578125 -30.703125 C 6.640625 -30.703125 7.550781 -30.316406 8.3125 -29.546875 C 9.082031 -28.785156 9.46875 -27.875 9.46875 -26.8125 C 9.46875 -25.75 9.082031 -24.835938 8.3125 -24.078125 C 7.550781 -23.316406 6.640625 -22.9375 5.578125 -22.9375 C 4.523438 -22.9375 3.613281 -23.316406 2.84375 -24.078125 C 2.082031 -24.835938 1.703125 -25.75 1.703125 -26.8125 C 1.703125 -27.875 2.082031 -28.785156 2.84375 -29.546875 Z M 2.21875 -18.96875 L 2.21875 0 L 8.765625 0 L 8.765625 -18.96875 Z M 2.21875 -18.96875 "/></g></g></g><g fill="#0c4a6e" fill-opacity="1"><g transform="translate(119.893889, 31.551545)"><g><path d="M 2.21875 0 L 2.21875 -18.96875 L 8.765625 -18.96875 L 8.765625 -16.96875 L 8.84375 -16.96875 C 10.539062 -18.675781 12.351562 -19.53125 14.28125 -19.53125 C 15.21875 -19.53125 16.144531 -19.40625 17.0625 -19.15625 C 17.988281 -18.90625 18.875 -18.519531 19.71875 -18 C 20.570312 -17.488281 21.265625 -16.757812 21.796875 -15.8125 C 22.328125 -14.863281 22.59375 -13.757812 22.59375 -12.5 L 22.59375 0 L 16.046875 0 L 16.046875 -10.71875 C 16.046875 -11.707031 15.734375 -12.570312 15.109375 -13.3125 C 14.484375 -14.050781 13.664062 -14.421875 12.65625 -14.421875 C 11.664062 -14.421875 10.769531 -14.035156 9.96875 -13.265625 C 9.164062 -12.503906 8.765625 -11.65625 8.765625 -10.71875 L 8.765625 0 Z M 2.21875 0 "/></g></g></g><g fill="#0369a1" fill-opacity="1"><g transform="translate(54.336048, 42.068641)"><g><path d="M 5 -3.96875 C 5.863281 -3.96875 6.296875 -3.425781 6.296875 -2.34375 L 6.296875 -0.359375 C 6.296875 -0.253906 6.265625 -0.164062 6.203125 -0.09375 C 6.140625 -0.03125 6.054688 0 5.953125 0 C 5.847656 0 5.757812 -0.03125 5.6875 -0.09375 C 5.625 -0.164062 5.59375 -0.253906 5.59375 -0.359375 L 5.59375 -2.328125 C 5.59375 -2.984375 5.320312 -3.3125 4.78125 -3.3125 C 4.582031 -3.3125 4.40625 -3.265625 4.25 -3.171875 C 4.09375 -3.085938 3.96875 -2.972656 3.875 -2.828125 C 3.789062 -2.679688 3.75 -2.515625 3.75 -2.328125 L 3.75 -0.359375 C 3.75 -0.253906 3.71875 -0.164062 3.65625 -0.09375 C 3.59375 -0.03125 3.507812 0 3.40625 0 C 3.300781 0 3.210938 -0.03125 3.140625 -0.09375 C 3.078125 -0.164062 3.046875 -0.253906 3.046875 -0.359375 L 3.046875 -2.34375 C 3.046875 -2.632812 2.984375 -2.867188 2.859375 -3.046875 C 2.734375 -3.222656 2.53125 -3.3125 2.25 -3.3125 C 1.957031 -3.3125 1.710938 -3.21875 1.515625 -3.03125 C 1.328125 -2.84375 1.234375 -2.613281 1.234375 -2.34375 L 1.234375 -0.359375 C 1.234375 -0.253906 1.195312 -0.164062 1.125 -0.09375 C 1.0625 -0.03125 0.976562 0 0.875 0 C 0.769531 0 0.6875 -0.03125 0.625 -0.09375 C 0.5625 -0.164062 0.53125 -0.253906 0.53125 -0.359375 L 0.53125 -3.546875 C 0.53125 -3.640625 0.5625 -3.71875 0.625 -3.78125 C 0.695312 -3.851562 0.78125 -3.890625 0.875 -3.890625 C 0.976562 -3.890625 1.0625 -3.851562 1.125 -3.78125 C 1.195312 -3.71875 1.234375 -3.640625 1.234375 -3.546875 L 1.234375 -3.28125 C 1.359375 -3.46875 1.53125 -3.628906 1.75 -3.765625 C 1.96875 -3.898438 2.203125 -3.96875 2.453125 -3.96875 C 3.066406 -3.96875 3.46875 -3.691406 3.65625 -3.140625 C 3.757812 -3.347656 3.9375 -3.535156 4.1875 -3.703125 C 4.445312 -3.878906 4.71875 -3.96875 5 -3.96875 Z M 5 -3.96875 "/></g></g></g><g fill="#0369a1" fill-opacity="1"><g transform="translate(66.017833, 42.068641)"><g><path d="M 3.953125 -2.09375 C 3.941406 -2.007812 3.898438 -1.9375 3.828125 -1.875 C 3.765625 -1.8125 3.6875 -1.78125 3.59375 -1.78125 L 0.96875 -1.78125 C 1.007812 -1.414062 1.148438 -1.125 1.390625 -0.90625 C 1.628906 -0.6875 1.921875 -0.578125 2.265625 -0.578125 C 2.503906 -0.578125 2.695312 -0.609375 2.84375 -0.671875 C 3 -0.742188 3.132812 -0.835938 3.25 -0.953125 C 3.320312 -0.992188 3.390625 -1.015625 3.453125 -1.015625 C 3.535156 -1.015625 3.601562 -0.984375 3.65625 -0.921875 C 3.71875 -0.867188 3.75 -0.800781 3.75 -0.71875 C 3.75 -0.613281 3.703125 -0.519531 3.609375 -0.4375 C 3.460938 -0.289062 3.269531 -0.164062 3.03125 -0.0625 C 2.789062 0.03125 2.550781 0.078125 2.3125 0.078125 C 1.90625 0.078125 1.546875 -0.00390625 1.234375 -0.171875 C 0.929688 -0.347656 0.695312 -0.585938 0.53125 -0.890625 C 0.375 -1.191406 0.296875 -1.53125 0.296875 -1.90625 C 0.296875 -2.320312 0.378906 -2.6875 0.546875 -3 C 0.710938 -3.320312 0.9375 -3.566406 1.21875 -3.734375 C 1.5 -3.898438 1.800781 -3.984375 2.125 -3.984375 C 2.445312 -3.984375 2.742188 -3.898438 3.015625 -3.734375 C 3.296875 -3.578125 3.519531 -3.351562 3.6875 -3.0625 C 3.851562 -2.78125 3.941406 -2.457031 3.953125 -2.09375 Z M 2.125 -3.328125 C 1.84375 -3.328125 1.597656 -3.25 1.390625 -3.09375 C 1.191406 -2.9375 1.0625 -2.695312 1 -2.375 L 3.203125 -2.375 L 3.203125 -2.4375 C 3.171875 -2.695312 3.050781 -2.910156 2.84375 -3.078125 C 2.632812 -3.242188 2.394531 -3.328125 2.125 -3.328125 Z M 2.125 -3.328125 "/></g></g></g><g fill="#0369a1" fill-opacity="1"><g transform="translate(75.110939, 42.068641)"><g><path d="M 3.6875 -5.5 C 3.789062 -5.5 3.875 -5.460938 3.9375 -5.390625 C 4.007812 -5.328125 4.046875 -5.242188 4.046875 -5.140625 L 4.046875 -0.359375 C 4.046875 -0.253906 4.007812 -0.164062 3.9375 -0.09375 C 3.875 -0.03125 3.789062 0 3.6875 0 C 3.582031 0 3.5 -0.03125 3.4375 -0.09375 C 3.375 -0.164062 3.34375 -0.253906 3.34375 -0.359375 L 3.34375 -0.5625 C 3.21875 -0.382812 3.039062 -0.234375 2.8125 -0.109375 C 2.59375 0.015625 2.351562 0.078125 2.09375 0.078125 C 1.75 0.078125 1.441406 -0.0078125 1.171875 -0.1875 C 0.898438 -0.363281 0.6875 -0.601562 0.53125 -0.90625 C 0.375 -1.21875 0.296875 -1.566406 0.296875 -1.953125 C 0.296875 -2.335938 0.375 -2.6875 0.53125 -3 C 0.6875 -3.3125 0.898438 -3.550781 1.171875 -3.71875 C 1.441406 -3.894531 1.738281 -3.984375 2.0625 -3.984375 C 2.332031 -3.984375 2.578125 -3.925781 2.796875 -3.8125 C 3.015625 -3.707031 3.195312 -3.570312 3.34375 -3.40625 L 3.34375 -5.140625 C 3.34375 -5.242188 3.375 -5.328125 3.4375 -5.390625 C 3.5 -5.460938 3.582031 -5.5 3.6875 -5.5 Z M 2.171875 -0.578125 C 2.398438 -0.578125 2.601562 -0.632812 2.78125 -0.75 C 2.96875 -0.875 3.113281 -1.039062 3.21875 -1.25 C 3.320312 -1.457031 3.375 -1.691406 3.375 -1.953125 C 3.375 -2.210938 3.320312 -2.445312 3.21875 -2.65625 C 3.113281 -2.863281 2.96875 -3.023438 2.78125 -3.140625 C 2.601562 -3.265625 2.398438 -3.328125 2.171875 -3.328125 C 1.941406 -3.328125 1.734375 -3.265625 1.546875 -3.140625 C 1.367188 -3.023438 1.226562 -2.863281 1.125 -2.65625 C 1.019531 -2.445312 0.96875 -2.210938 0.96875 -1.953125 C 0.96875 -1.691406 1.019531 -1.457031 1.125 -1.25 C 1.226562 -1.039062 1.367188 -0.875 1.546875 -0.75 C 1.734375 -0.632812 1.941406 -0.578125 2.171875 -0.578125 Z M 2.171875 -0.578125 "/></g></g></g><g fill="#0369a1" fill-opacity="1"><g transform="translate(84.531356, 42.068641)"><g><path d="M 1.203125 -0.359375 C 1.203125 -0.253906 1.164062 -0.164062 1.09375 -0.09375 C 1.03125 -0.03125 0.945312 0 0.84375 0 C 0.738281 0 0.648438 -0.03125 0.578125 -0.09375 C 0.515625 -0.164062 0.484375 -0.253906 0.484375 -0.359375 L 0.484375 -3.578125 C 0.484375 -3.671875 0.515625 -3.753906 0.578125 -3.828125 C 0.648438 -3.898438 0.738281 -3.9375 0.84375 -3.9375 C 0.945312 -3.9375 1.03125 -3.898438 1.09375 -3.828125 C 1.164062 -3.753906 1.203125 -3.671875 1.203125 -3.578125 Z M 0.828125 -4.421875 C 0.691406 -4.421875 0.59375 -4.445312 0.53125 -4.5 C 0.46875 -4.550781 0.4375 -4.632812 0.4375 -4.75 L 0.4375 -4.875 C 0.4375 -4.988281 0.46875 -5.070312 0.53125 -5.125 C 0.601562 -5.175781 0.707031 -5.203125 0.84375 -5.203125 C 0.976562 -5.203125 1.078125 -5.175781 1.140625 -5.125 C 1.203125 -5.070312 1.234375 -4.988281 1.234375 -4.875 L 1.234375 -4.75 C 1.234375 -4.632812 1.203125 -4.550781 1.140625 -4.5 C 1.078125 -4.445312 0.972656 -4.421875 0.828125 -4.421875 Z M 0.828125 -4.421875 "/></g></g></g><g fill="#0369a1" fill-opacity="1"><g transform="translate(91.072981, 42.068641)"><g><path d="M 3.6875 -3.953125 C 3.789062 -3.953125 3.875 -3.914062 3.9375 -3.84375 C 4.007812 -3.78125 4.046875 -3.691406 4.046875 -3.578125 L 4.046875 -0.359375 C 4.046875 -0.253906 4.007812 -0.164062 3.9375 -0.09375 C 3.875 -0.03125 3.789062 0 3.6875 0 C 3.582031 0 3.5 -0.03125 3.4375 -0.09375 C 3.375 -0.164062 3.34375 -0.253906 3.34375 -0.359375 L 3.34375 -0.546875 C 3.207031 -0.378906 3.03125 -0.234375 2.8125 -0.109375 C 2.59375 0.015625 2.351562 0.078125 2.09375 0.078125 C 1.75 0.078125 1.441406 -0.0078125 1.171875 -0.1875 C 0.898438 -0.363281 0.6875 -0.601562 0.53125 -0.90625 C 0.375 -1.21875 0.296875 -1.566406 0.296875 -1.953125 C 0.296875 -2.335938 0.375 -2.6875 0.53125 -3 C 0.6875 -3.3125 0.898438 -3.550781 1.171875 -3.71875 C 1.441406 -3.894531 1.738281 -3.984375 2.0625 -3.984375 C 2.332031 -3.984375 2.578125 -3.925781 2.796875 -3.8125 C 3.023438 -3.707031 3.207031 -3.570312 3.34375 -3.40625 L 3.34375 -3.578125 C 3.34375 -3.679688 3.375 -3.769531 3.4375 -3.84375 C 3.5 -3.914062 3.582031 -3.953125 3.6875 -3.953125 Z M 2.171875 -0.578125 C 2.398438 -0.578125 2.601562 -0.632812 2.78125 -0.75 C 2.96875 -0.875 3.113281 -1.039062 3.21875 -1.25 C 3.320312 -1.457031 3.375 -1.691406 3.375 -1.953125 C 3.375 -2.210938 3.320312 -2.445312 3.21875 -2.65625 C 3.113281 -2.863281 2.96875 -3.023438 2.78125 -3.140625 C 2.601562 -3.265625 2.398438 -3.328125 2.171875 -3.328125 C 1.941406 -3.328125 1.734375 -3.265625 1.546875 -3.140625 C 1.367188 -3.023438 1.226562 -2.863281 1.125 -2.65625 C 1.019531 -2.445312 0.96875 -2.210938 0.96875 -1.953125 C 0.96875 -1.691406 1.019531 -1.457031 1.125 -1.25 C 1.226562 -1.039062 1.367188 -0.875 1.546875 -0.75 C 1.734375 -0.632812 1.941406 -0.578125 2.171875 -0.578125 Z M 2.171875 -0.578125 "/></g></g></g></svg>