<svg xmlns="http://www.w3.org/2000/svg" xmlns:xlink="http://www.w3.org/1999/xlink" width="325" zoomAndPan="magnify" viewBox="0 0 243.75 131.249995" height="175" preserveAspectRatio="xMidYMid meet" version="1.0"><defs><g/></defs><g fill="#0c4a6e" fill-opacity="1"><g transform="translate(0.568187, 59.760997)"><g><path d="M 3.84375 -52.921875 L 20.265625 -52.921875 C 25.234375 -52.921875 29.191406 -51.863281 32.140625 -49.75 C 35.085938 -47.632812 36.5625 -44.203125 36.5625 -39.453125 C 36.5625 -34.148438 34.363281 -30.363281 29.96875 -28.09375 C 37.488281 -26.769531 41.25 -22.320312 41.25 -14.75 C 41.25 -10.300781 39.707031 -6.726562 36.625 -4.03125 C 33.550781 -1.34375 29.320312 0 23.9375 0 L 3.84375 0 Z M 15.90625 -32.203125 L 16.875 -32.203125 C 19.570312 -32.203125 21.582031 -32.671875 22.90625 -33.609375 C 24.226562 -34.554688 24.890625 -36.097656 24.890625 -38.234375 C 24.890625 -41.828125 22.21875 -43.625 16.875 -43.625 L 15.90625 -43.625 Z M 15.90625 -9.296875 L 19.703125 -9.296875 C 25.597656 -9.296875 28.546875 -11.265625 28.546875 -15.203125 C 28.546875 -17.554688 27.804688 -19.242188 26.328125 -20.265625 C 24.859375 -21.296875 22.648438 -21.8125 19.703125 -21.8125 L 15.90625 -21.8125 Z M 15.90625 -9.296875 "/></g></g></g><g fill="#0c4a6e" fill-opacity="1"><g transform="translate(37.255291, 59.760997)"><g><path d="M 3.84375 0 L 3.84375 -32.90625 L 15.203125 -32.90625 L 15.203125 -28.171875 L 15.328125 -28.171875 C 15.421875 -28.335938 15.5625 -28.546875 15.75 -28.796875 C 15.945312 -29.054688 16.363281 -29.503906 17 -30.140625 C 17.644531 -30.785156 18.328125 -31.363281 19.046875 -31.875 C 19.773438 -32.394531 20.71875 -32.859375 21.875 -33.265625 C 23.03125 -33.671875 24.207031 -33.875 25.40625 -33.875 C 26.644531 -33.875 27.863281 -33.703125 29.0625 -33.359375 C 30.257812 -33.015625 31.132812 -32.671875 31.6875 -32.328125 L 32.59375 -31.828125 L 27.84375 -22.203125 C 26.4375 -23.398438 24.46875 -24 21.9375 -24 C 20.570312 -24 19.394531 -23.695312 18.40625 -23.09375 C 17.425781 -22.5 16.734375 -21.769531 16.328125 -20.90625 C 15.921875 -20.050781 15.628906 -19.320312 15.453125 -18.71875 C 15.285156 -18.125 15.203125 -17.660156 15.203125 -17.328125 L 15.203125 0 Z M 3.84375 0 "/></g></g></g><g fill="#0c4a6e" fill-opacity="1"><g transform="translate(63.166748, 59.760997)"><g><path d="M 6.953125 -3.90625 C 3.296875 -7.164062 1.46875 -11.335938 1.46875 -16.421875 C 1.46875 -21.515625 3.367188 -25.695312 7.171875 -28.96875 C 10.984375 -32.238281 15.691406 -33.875 21.296875 -33.875 C 26.816406 -33.875 31.46875 -32.226562 35.25 -28.9375 C 39.039062 -25.644531 40.9375 -21.472656 40.9375 -16.421875 C 40.9375 -11.378906 39.082031 -7.21875 35.375 -3.9375 C 31.675781 -0.664062 26.984375 0.96875 21.296875 0.96875 C 15.398438 0.96875 10.617188 -0.65625 6.953125 -3.90625 Z M 15.75 -22 C 14.269531 -20.550781 13.53125 -18.691406 13.53125 -16.421875 C 13.53125 -14.160156 14.234375 -12.3125 15.640625 -10.875 C 17.054688 -9.4375 18.921875 -8.71875 21.234375 -8.71875 C 23.460938 -8.71875 25.289062 -9.445312 26.71875 -10.90625 C 28.15625 -12.363281 28.875 -14.203125 28.875 -16.421875 C 28.875 -18.691406 28.132812 -20.550781 26.65625 -22 C 25.175781 -23.457031 23.367188 -24.1875 21.234375 -24.1875 C 19.054688 -24.1875 17.226562 -23.457031 15.75 -22 Z M 15.75 -22 "/></g></g></g><g fill="#0c4a6e" fill-opacity="1"><g transform="translate(99.533151, 59.760997)"><g><path d="M 6.953125 -3.90625 C 3.296875 -7.164062 1.46875 -11.335938 1.46875 -16.421875 C 1.46875 -21.515625 3.367188 -25.695312 7.171875 -28.96875 C 10.984375 -32.238281 15.691406 -33.875 21.296875 -33.875 C 26.816406 -33.875 31.46875 -32.226562 35.25 -28.9375 C 39.039062 -25.644531 40.9375 -21.472656 40.9375 -16.421875 C 40.9375 -11.378906 39.082031 -7.21875 35.375 -3.9375 C 31.675781 -0.664062 26.984375 0.96875 21.296875 0.96875 C 15.398438 0.96875 10.617188 -0.65625 6.953125 -3.90625 Z M 15.75 -22 C 14.269531 -20.550781 13.53125 -18.691406 13.53125 -16.421875 C 13.53125 -14.160156 14.234375 -12.3125 15.640625 -10.875 C 17.054688 -9.4375 18.921875 -8.71875 21.234375 -8.71875 C 23.460938 -8.71875 25.289062 -9.445312 26.71875 -10.90625 C 28.15625 -12.363281 28.875 -14.203125 28.875 -16.421875 C 28.875 -18.691406 28.132812 -20.550781 26.65625 -22 C 25.175781 -23.457031 23.367188 -24.1875 21.234375 -24.1875 C 19.054688 -24.1875 17.226562 -23.457031 15.75 -22 Z M 15.75 -22 "/></g></g></g><g fill="#0c4a6e" fill-opacity="1"><g transform="translate(135.89956, 59.760997)"><g><path d="M 41.4375 -32.90625 L 25.796875 -17.1875 L 42.984375 0 L 28.359375 0 L 15.203125 -13.15625 L 15.203125 0 L 3.84375 0 L 3.84375 -55.171875 L 15.203125 -55.171875 L 15.203125 -21.421875 L 26.6875 -32.90625 Z M 41.4375 -32.90625 "/></g></g></g><g fill="#0c4a6e" fill-opacity="1"><g transform="translate(171.303847, 59.760997)"><g><path d="M 3.84375 0 L 3.84375 -55.171875 L 15.203125 -55.171875 L 15.203125 0 Z M 3.84375 0 "/></g></g></g><g fill="#0c4a6e" fill-opacity="1"><g transform="translate(184.323009, 59.760997)"><g><path d="M 4.9375 -51.25 C 6.257812 -52.582031 7.84375 -53.25 9.6875 -53.25 C 11.53125 -53.25 13.113281 -52.582031 14.4375 -51.25 C 15.757812 -49.925781 16.421875 -48.34375 16.421875 -46.5 C 16.421875 -44.664062 15.757812 -43.085938 14.4375 -41.765625 C 13.113281 -40.441406 11.53125 -39.78125 9.6875 -39.78125 C 7.84375 -39.78125 6.257812 -40.441406 4.9375 -41.765625 C 3.613281 -43.085938 2.953125 -44.664062 2.953125 -46.5 C 2.953125 -48.34375 3.613281 -49.925781 4.9375 -51.25 Z M 3.84375 -32.90625 L 3.84375 0 L 15.203125 0 L 15.203125 -32.90625 Z M 3.84375 -32.90625 "/></g></g></g><g fill="#0c4a6e" fill-opacity="1"><g transform="translate(197.662881, 59.760997)"><g><path d="M 3.84375 0 L 3.84375 -32.90625 L 15.203125 -32.90625 L 15.203125 -29.453125 L 15.328125 -29.453125 C 18.285156 -32.398438 21.429688 -33.875 24.765625 -33.875 C 26.390625 -33.875 28.003906 -33.660156 29.609375 -33.234375 C 31.210938 -32.804688 32.75 -32.140625 34.21875 -31.234375 C 35.695312 -30.335938 36.894531 -29.066406 37.8125 -27.421875 C 38.738281 -25.773438 39.203125 -23.863281 39.203125 -21.6875 L 39.203125 0 L 27.84375 0 L 27.84375 -18.609375 C 27.84375 -20.316406 27.296875 -21.8125 26.203125 -23.09375 C 25.117188 -24.375 23.695312 -25.015625 21.9375 -25.015625 C 20.226562 -25.015625 18.675781 -24.351562 17.28125 -23.03125 C 15.894531 -21.707031 15.203125 -20.234375 15.203125 -18.609375 L 15.203125 0 Z M 3.84375 0 "/></g></g></g><g fill="#0c4a6e" fill-opacity="1"><g transform="translate(0.568187, 123.80163)"><g><path d="M 15.90625 -52.921875 L 15.90625 -10.578125 L 34.125 -10.578125 L 34.125 0 L 3.84375 0 L 3.84375 -52.921875 Z M 15.90625 -52.921875 "/></g></g></g><g fill="#0c4a6e" fill-opacity="1"><g transform="translate(30.777072, 123.80163)"><g><path d="M 37.140625 -14.890625 L 13.28125 -14.890625 C 13.28125 -12.578125 14.023438 -10.863281 15.515625 -9.75 C 17.015625 -8.632812 18.644531 -8.078125 20.40625 -8.078125 C 22.238281 -8.078125 23.691406 -8.320312 24.765625 -8.8125 C 25.835938 -9.3125 27.054688 -10.285156 28.421875 -11.734375 L 36.640625 -7.640625 C 33.210938 -1.898438 27.519531 0.96875 19.5625 0.96875 C 14.601562 0.96875 10.347656 -0.726562 6.796875 -4.125 C 3.242188 -7.53125 1.46875 -11.628906 1.46875 -16.421875 C 1.46875 -21.210938 3.242188 -25.316406 6.796875 -28.734375 C 10.347656 -32.160156 14.601562 -33.875 19.5625 -33.875 C 24.78125 -33.875 29.023438 -32.363281 32.296875 -29.34375 C 35.566406 -26.332031 37.203125 -22.023438 37.203125 -16.421875 C 37.203125 -15.648438 37.179688 -15.140625 37.140625 -14.890625 Z M 13.59375 -21.171875 L 26.109375 -21.171875 C 25.859375 -22.878906 25.1875 -24.191406 24.09375 -25.109375 C 23 -26.035156 21.597656 -26.5 19.890625 -26.5 C 18.003906 -26.5 16.503906 -26.003906 15.390625 -25.015625 C 14.285156 -24.035156 13.6875 -22.753906 13.59375 -21.171875 Z M 13.59375 -21.171875 "/></g></g></g><g fill="#0c4a6e" fill-opacity="1"><g transform="translate(63.423307, 123.80163)"><g><path d="M 37.140625 -14.890625 L 13.28125 -14.890625 C 13.28125 -12.578125 14.023438 -10.863281 15.515625 -9.75 C 17.015625 -8.632812 18.644531 -8.078125 20.40625 -8.078125 C 22.238281 -8.078125 23.691406 -8.320312 24.765625 -8.8125 C 25.835938 -9.3125 27.054688 -10.285156 28.421875 -11.734375 L 36.640625 -7.640625 C 33.210938 -1.898438 27.519531 0.96875 19.5625 0.96875 C 14.601562 0.96875 10.347656 -0.726562 6.796875 -4.125 C 3.242188 -7.53125 1.46875 -11.628906 1.46875 -16.421875 C 1.46875 -21.210938 3.242188 -25.316406 6.796875 -28.734375 C 10.347656 -32.160156 14.601562 -33.875 19.5625 -33.875 C 24.78125 -33.875 29.023438 -32.363281 32.296875 -29.34375 C 35.566406 -26.332031 37.203125 -22.023438 37.203125 -16.421875 C 37.203125 -15.648438 37.179688 -15.140625 37.140625 -14.890625 Z M 13.59375 -21.171875 L 26.109375 -21.171875 C 25.859375 -22.878906 25.1875 -24.191406 24.09375 -25.109375 C 23 -26.035156 21.597656 -26.5 19.890625 -26.5 C 18.003906 -26.5 16.503906 -26.003906 15.390625 -25.015625 C 14.285156 -24.035156 13.6875 -22.753906 13.59375 -21.171875 Z M 13.59375 -21.171875 "/></g></g></g></svg>