<svg xmlns="http://www.w3.org/2000/svg" xmlns:xlink="http://www.w3.org/1999/xlink" width="300" zoomAndPan="magnify" viewBox="0 0 224.87999 225" height="300" preserveAspectRatio="xMidYMid meet" version="1.0"><defs><clipPath id="11799ab250"><path d="M 0 14.675781 L 224.761719 14.675781 L 224.761719 209 L 0 209 Z M 0 14.675781 " clip-rule="nonzero"/></clipPath></defs><g clip-path="url(#11799ab250)"><path fill="#23be93" d="M 224.878906 58.332031 L 224.878906 134.863281 C 224.878906 158.933594 206.109375 178.445312 182.945312 178.445312 L 149.285156 178.445312 C 146.683594 178.445312 144.191406 179.570312 142.417969 181.550781 L 121.414062 204.910156 C 116.617188 210.242188 108.257812 210.242188 103.457031 204.910156 L 82.453125 181.550781 C 80.675781 179.570312 78.183594 178.445312 75.582031 178.445312 L 41.953125 178.445312 C 18.78125 178.441406 0 158.921875 0 134.847656 L 0 58.332031 C 0 34.253906 18.78125 14.734375 41.953125 14.734375 L 182.933594 14.734375 C 206.097656 14.734375 224.878906 34.253906 224.878906 58.332031 Z M 224.878906 58.332031 " fill-opacity="1" fill-rule="nonzero"/></g><path fill="#ffffff" d="M 156.296875 89.769531 C 156.296875 103.582031 146.207031 112.324219 137.304688 120.0625 C 136.183594 121.027344 135.039062 122.011719 133.9375 123.007812 L 130.414062 126.148438 C 126.027344 130.34375 121.40625 134.3125 116.582031 138.03125 C 114.074219 139.660156 110.828125 139.660156 108.300781 138.03125 C 103.636719 134.414062 99.160156 130.585938 94.875 126.515625 L 90.964844 123.007812 C 89.894531 122.039062 88.789062 121.113281 87.714844 120.164062 C 78.308594 111.984375 68.582031 103.542969 68.582031 89.765625 C 68.09375 75.109375 79.515625 62.808594 94.175781 62.246094 C 101.179688 62.035156 107.878906 65.015625 112.429688 70.351562 C 116.976562 65 123.710938 62.015625 130.734375 62.246094 C 145.363281 62.8125 156.808594 75.113281 156.296875 89.769531 Z M 156.296875 89.769531 " fill-opacity="1" fill-rule="nonzero"/></svg>